<svg width="271" height="124" viewBox="0 0 271 124" fill="none" xmlns="http://www.w3.org/2000/svg">
<path d="M2.83866 1.35226L1.46381 6.16561L27.5297 13.8187L29.0198 14.2476L43.1337 89.0128C44.0896 88.6763 45.0738 88.3961 46.114 88.1997C46.5919 88.1157 47.0419 88.0596 47.5198 88.0036L32.7592 9.85479L2.83866 1.35226ZM80.0495 17.9481L40.8283 25.3208L46.5639 55.5689L85.785 48.2521L80.0495 17.9481ZM104.397 49.8782L91.6893 52.261V52.289L55.5607 59.0451L47.4916 60.5588L52.6649 88.0315C58.6535 88.8727 63.9955 92.3208 67.2288 97.3667L111.792 89.0128L104.397 49.8782ZM121.576 92.2927L69.4498 102.076C69.7028 102.889 69.8998 103.702 70.0683 104.543C70.1808 105.188 70.2933 105.833 70.3495 106.478L122.391 96.7219L121.576 92.2927ZM50.1626 92.8814C49.1505 92.8814 48.1103 92.9654 47.0419 93.1618C38.6353 94.7316 33.1247 102.777 34.7273 111.159C36.3017 119.569 44.3428 125.036 52.7774 123.466C61.212 121.896 66.6946 113.878 65.1202 105.468C63.7143 98.0957 57.3883 92.9935 50.1626 92.8814ZM49.7129 98.8524C54.0145 98.9367 57.8663 102.02 58.7097 106.393C59.6376 111.355 56.2919 116.233 51.2873 117.186C46.2827 118.111 41.4188 114.803 40.4629 109.813C39.535 104.824 42.8527 99.9459 47.8571 98.9927C48.4757 98.8806 49.0942 98.8245 49.7129 98.8524ZM49.6566 103.871C49.3754 103.871 49.0942 103.899 48.813 103.955C46.4794 104.403 44.9893 106.562 45.4392 108.86C45.861 111.187 48.054 112.673 50.3594 112.224C52.6929 111.776 54.1551 109.617 53.7333 107.318C53.3396 105.272 51.6247 103.899 49.6566 103.871Z" fill="#F8F9FA"/>
<path d="M84.1213 88.5739C86.8857 88.5739 89.0673 88.0613 90.6665 87.0363C92.2885 86.0112 93.0994 84.6219 93.0994 82.8679C93.0994 81.6834 92.8824 80.7153 92.4485 79.9635C92.0371 79.1892 91.2034 78.4829 89.9469 77.8452C88.7133 77.2074 86.8514 76.5811 84.3613 75.9659C81.597 75.2826 79.3354 74.5423 77.5763 73.745C75.8401 72.9251 74.4808 71.866 73.4983 70.5675C72.5389 69.2692 72.0592 67.6178 72.0592 65.6132C72.0592 63.6314 72.6304 61.9002 73.7725 60.4197C74.9148 58.9391 76.514 57.8003 78.5701 57.003C80.649 56.2057 83.0477 55.807 85.7663 55.807C88.4848 55.807 90.9292 56.1716 93.0994 56.9005C95.2927 57.6065 97.2116 58.5634 98.8565 59.7706L96.3206 63.6657C94.8128 62.6406 93.2251 61.8547 91.5575 61.308C89.9126 60.7387 88.005 60.4539 85.8348 60.4539C83.1162 60.4539 81.1286 60.8753 79.8722 61.7181C78.6386 62.5382 78.0218 63.6884 78.0218 65.169C78.0218 66.2397 78.3073 67.1166 78.8784 67.7999C79.4724 68.4834 80.4205 69.0984 81.7226 69.6451C83.0477 70.1688 85.0123 70.7838 87.6167 71.4901C90.2211 72.1961 92.357 72.982 94.0247 73.8476C95.6925 74.7132 96.9946 75.8521 97.9312 77.2644C98.8678 78.6539 99.3361 80.4307 99.3361 82.5946C99.3361 85.0318 98.628 87.0591 97.2116 88.6763C95.7953 90.2709 93.9334 91.4439 91.626 92.1957C89.3414 92.9473 86.8399 93.3231 84.1213 93.3231C78.4558 93.3231 73.7497 91.706 70.0032 88.4714L73.2928 84.6787C74.7549 85.9089 76.4112 86.8655 78.2616 87.5488C80.112 88.2321 82.0653 88.5739 84.1213 88.5739Z" fill="#17A2B8"/>
<path fill-rule="evenodd" clip-rule="evenodd" d="M89.6627 85.4795L89.6728 85.473C90.8165 84.7503 91.2433 83.9214 91.2433 82.8679C91.2433 81.8939 91.063 81.2735 90.8397 80.8871L90.8234 80.8586L90.808 80.8295C90.6543 80.54 90.2096 80.0553 89.1048 79.4946L89.0923 79.4883C88.0546 78.9517 86.3612 78.3667 83.915 77.7624C81.0869 77.0634 78.7067 76.2906 76.8083 75.43L76.7949 75.424L76.7817 75.4177C74.8227 74.4926 73.209 73.2581 72.0166 71.6822L72.0039 71.6655C70.7575 69.9788 70.2029 67.9154 70.2029 65.6132C70.2029 63.25 70.8936 61.1159 72.3013 59.2913C73.6843 57.4986 75.5821 56.1757 77.8973 55.2781L77.9038 55.2755C80.2364 54.381 82.8686 53.9563 85.7663 53.9563C88.6452 53.9563 91.2906 54.3416 93.6808 55.1428C96.0355 55.9022 98.1347 56.9427 99.9568 58.28L101.366 59.3146L96.8437 66.2614L95.275 65.1948C93.9054 64.2637 92.4737 63.5567 90.9777 63.0662L90.9632 63.0614L90.9487 63.0564C89.541 62.5691 87.8467 62.3046 85.8348 62.3046C83.2298 62.3046 81.6992 62.7231 80.9083 63.2537L80.9018 63.258C80.1855 63.7342 79.878 64.306 79.878 65.169C79.878 65.8873 80.0593 66.3154 80.2934 66.6019C80.6277 66.9796 81.2788 67.4486 82.4252 67.9318C83.6525 68.4156 85.5313 69.0068 88.1038 69.7041C90.7859 70.4315 93.0577 71.2591 94.8817 72.206C96.7964 73.1996 98.3477 74.5392 99.4759 76.2382C100.668 78.0097 101.192 80.1723 101.192 82.5946C101.192 85.4149 100.361 87.8936 98.6098 89.8937L98.6011 89.9035C96.9382 91.7756 94.7817 93.1142 92.2055 93.9539C89.7114 94.7743 87.0114 95.1739 84.1214 95.1739C78.0775 95.1739 72.9201 93.4379 68.7881 89.8706L67.3856 88.6598L73.0883 82.0852L74.4897 83.2642C75.7825 84.3518 77.2508 85.2019 78.9063 85.8134C80.5417 86.4173 82.276 86.7232 84.1214 86.7232C86.6827 86.7232 88.4698 86.2442 89.6627 85.4795ZM91.626 92.1957C93.9334 91.4439 95.7951 90.2709 97.2116 88.6763C98.628 87.0591 99.3361 85.0318 99.3361 82.5946C99.3361 80.4307 98.8678 78.654 97.9312 77.2644C96.9946 75.8521 95.6925 74.7132 94.0247 73.8476C92.357 72.982 90.2211 72.1961 87.6167 71.4901C85.0123 70.7838 83.0476 70.1688 81.7226 69.6451C80.4205 69.0984 79.4724 68.4834 78.8784 67.7999C78.3073 67.1166 78.0218 66.2397 78.0218 65.169C78.0218 63.6884 78.6386 62.5382 79.8722 61.7181C81.1287 60.8753 83.1162 60.4539 85.8348 60.4539C88.005 60.4539 89.9126 60.7387 91.5575 61.308C92.9433 61.7624 94.274 62.382 95.5496 63.1665C95.8089 63.3261 96.066 63.4925 96.3206 63.6657L98.8565 59.7706C97.2116 58.5634 95.2927 57.6065 93.0994 56.9005C90.9292 56.1716 88.4848 55.807 85.7663 55.807C83.0476 55.807 80.6488 56.2057 78.5699 57.003C76.5139 57.8003 74.9148 58.9391 73.7725 60.4197C72.6302 61.9003 72.0591 63.6314 72.0591 65.6132C72.0591 67.6178 72.5389 69.2692 73.4983 70.5675C74.4808 71.866 75.8401 72.9252 77.5763 73.745C79.3352 74.5423 81.597 75.2826 84.3612 75.9659C86.8514 76.5811 88.7133 77.2074 89.9469 77.8452C91.2034 78.4829 92.0371 79.1892 92.4485 79.9635C92.8824 80.7153 93.0994 81.6834 93.0994 82.8679C93.0994 84.6219 92.2885 86.0112 90.6666 87.0363C89.0673 88.0613 86.8856 88.574 84.1214 88.574C82.0653 88.574 80.112 88.2321 78.2616 87.5488C76.4112 86.8655 74.755 85.9089 73.2929 84.6787L70.0032 88.4714C70.0088 88.4762 70.0145 88.481 70.0201 88.486C70.4865 88.8878 70.9678 89.2646 71.464 89.6163C74.95 92.0876 79.1691 93.3231 84.1214 93.3231C86.8399 93.3231 89.3414 92.9473 91.626 92.1957Z" fill="#17A2B8"/>
<path d="M124.552 55.807C129.167 55.807 132.491 57.4357 134.524 60.693C136.58 63.9503 137.609 68.5629 137.609 74.531C137.609 78.2438 137.094 81.5126 136.066 84.337C135.039 87.1389 133.474 89.337 131.372 90.9314C129.293 92.5258 126.734 93.3231 123.696 93.3231C119.721 93.3231 116.545 91.9336 114.169 89.1547V106.307L108.412 107.024V56.5588H113.313L113.793 61.5814C115.117 59.7136 116.694 58.29 118.521 57.3104C120.372 56.3082 122.382 55.807 124.552 55.807ZM123.182 60.4197C121.331 60.4197 119.641 60.9664 118.11 62.0598C116.602 63.1532 115.289 64.5313 114.169 66.194V84.0296C115.129 85.4417 116.317 86.5466 117.733 87.3438C119.173 88.1411 120.737 88.5397 122.428 88.5397C125.443 88.5397 127.694 87.3893 129.179 85.0888C130.686 82.7881 131.44 79.2575 131.44 74.4968C131.44 69.7589 130.766 66.2282 129.419 63.9048C128.071 61.5814 125.992 60.4197 123.182 60.4197Z" fill="#F8F9FA"/>
<path d="M148.701 76.5811C148.793 79.269 149.318 81.5126 150.277 83.3121C151.237 85.0888 152.494 86.4099 154.047 87.2755C155.6 88.1183 157.337 88.5397 159.256 88.5397C161.038 88.5397 162.671 88.2778 164.156 87.7539C165.664 87.2299 167.24 86.4099 168.885 85.2937L171.592 89.0864C169.901 90.4075 167.96 91.4439 165.766 92.1957C163.596 92.9473 161.403 93.3231 159.187 93.3231C155.738 93.3231 152.768 92.5486 150.277 90.9997C147.787 89.4508 145.891 87.2642 144.589 84.4396C143.31 81.615 142.67 78.3349 142.67 74.5993C142.67 70.9776 143.321 67.7431 144.623 64.8957C145.926 62.0483 147.765 59.8274 150.14 58.233C152.516 56.6158 155.281 55.807 158.433 55.807C161.449 55.807 164.053 56.5133 166.246 57.9256C168.462 59.3377 170.153 61.3765 171.318 64.0416C172.506 66.6839 173.1 69.8159 173.1 73.4376C173.1 74.4853 173.054 75.5332 172.963 76.5811H148.701ZM158.502 60.5222C155.715 60.5222 153.441 61.5018 151.683 63.4606C149.946 65.3969 148.964 68.2898 148.736 72.1393H167.548C167.48 68.3581 166.646 65.4766 165.047 63.4949C163.448 61.5131 161.266 60.5222 158.502 60.5222Z" fill="#F8F9FA"/>
<path d="M178.453 76.5811C178.544 79.269 179.069 81.5126 180.029 83.3121C180.988 85.0888 182.245 86.4099 183.798 87.2755C185.352 88.1183 187.088 88.5397 189.008 88.5397C190.79 88.5397 192.423 88.2778 193.908 87.7539C195.415 87.2299 196.991 86.4099 198.636 85.2937L201.344 89.0864C199.653 90.4075 197.711 91.4439 195.517 92.1957C193.347 92.9473 191.155 93.3231 188.939 93.3231C185.489 93.3231 182.519 92.5486 180.029 90.9997C177.539 89.4508 175.643 87.2642 174.341 84.4396C173.061 81.615 172.422 78.3349 172.422 74.5993C172.422 70.9776 173.073 67.7431 174.375 64.8957C175.677 62.0483 177.516 59.8274 179.892 58.233C182.268 56.6158 185.032 55.807 188.185 55.807C191.2 55.807 193.804 56.5133 195.998 57.9256C198.214 59.3377 199.903 61.3765 201.069 64.0416C202.257 66.6839 202.851 69.8159 202.851 73.4376C202.851 74.4853 202.806 75.5332 202.714 76.5811H178.453ZM188.254 60.5222C185.466 60.5222 183.193 61.5018 181.434 63.4606C179.698 65.3969 178.715 68.2898 178.487 72.1393H197.299C197.23 68.3581 196.397 65.4766 194.799 63.4949C193.199 61.5131 191.018 60.5222 188.254 60.5222Z" fill="#F8F9FA"/>
<path d="M208.204 76.5811C208.295 79.269 208.82 81.5126 209.78 83.3121C210.74 85.0888 211.996 86.4099 213.55 87.2755C215.104 88.1183 216.839 88.5397 218.758 88.5397C220.54 88.5397 222.174 88.2778 223.659 87.7539C225.166 87.2299 226.744 86.4099 228.388 85.2937L231.094 89.0864C229.405 90.4075 227.462 91.4439 225.27 92.1957C223.1 92.9473 220.906 93.3231 218.69 93.3231C215.241 93.3231 212.271 92.5486 209.78 90.9997C207.291 89.4508 205.394 87.2642 204.093 84.4396C202.812 81.615 202.173 78.3349 202.173 74.5993C202.173 70.9776 202.825 67.7431 204.126 64.8957C205.429 62.0483 207.267 59.8274 209.643 58.233C212.019 56.6158 214.784 55.807 217.936 55.807C220.952 55.807 223.556 56.5133 225.749 57.9256C227.965 59.3377 229.656 61.3765 230.821 64.0416C232.009 66.6839 232.603 69.8159 232.603 73.4376C232.603 74.4853 232.557 75.5332 232.466 76.5811H208.204ZM218.005 60.5222C215.217 60.5222 212.945 61.5018 211.185 63.4606C209.45 65.3969 208.468 68.2898 208.238 72.1393H227.052C226.983 68.3581 226.15 65.4766 224.55 63.4949C222.951 61.5131 220.769 60.5222 218.005 60.5222Z" fill="#F8F9FA"/>
<path d="M262.371 41.3542L268.129 42.0717V92.5373H263.091L262.543 87.7879C261.218 89.6559 259.687 91.0452 257.951 91.9564C256.214 92.8675 254.33 93.3231 252.297 93.3231C247.727 93.3231 244.29 91.649 241.983 88.3006C239.698 84.952 238.554 80.3849 238.554 74.5993C238.554 70.9776 239.115 67.7431 240.234 64.8957C241.376 62.0483 243.009 59.8274 245.134 58.233C247.282 56.6158 249.806 55.807 252.708 55.807C254.764 55.807 256.579 56.1602 258.155 56.8662C259.755 57.5725 261.16 58.6316 262.371 60.0439V41.3542ZM254.215 60.4196C251.176 60.4196 248.847 61.6156 247.224 64.0073C245.626 66.3763 244.826 69.9069 244.826 74.5993C244.826 79.2462 245.558 82.7539 247.018 85.1229C248.503 87.4918 250.664 88.6763 253.496 88.6763C256.901 88.6763 259.857 86.7858 262.371 83.0045V65.0324C261.389 63.5746 260.19 62.447 258.773 61.6498C257.379 60.8298 255.861 60.4196 254.215 60.4196Z" fill="#F8F9FA"/>
<path fill-rule="evenodd" clip-rule="evenodd" d="M108.412 56.5588H113.313L113.793 61.5814C114.312 60.8492 114.87 60.1852 115.467 59.5894C116.392 58.6655 117.41 57.906 118.521 57.3104C120.372 56.3082 122.382 55.807 124.553 55.807C129.167 55.807 132.491 57.4357 134.524 60.693C136.58 63.9503 137.609 68.5629 137.609 74.531C137.609 78.2438 137.094 81.5126 136.067 84.337C135.039 87.1389 133.474 89.337 131.372 90.9314C129.293 92.5258 126.734 93.3231 123.696 93.3231C120.678 93.3231 118.122 92.5225 116.026 90.9211C115.36 90.4128 114.742 89.8241 114.17 89.1547V106.307L108.412 107.024V56.5588ZM116.026 93.1632V107.941L106.556 109.121V54.7081H115.001L115.247 57.2884C115.993 56.6741 116.79 56.1378 117.639 55.6823C119.769 54.5293 122.084 53.9563 124.553 53.9563C129.658 53.9563 133.653 55.7987 136.098 59.7108C138.415 63.3836 139.465 68.393 139.465 74.531C139.465 78.4102 138.928 81.9001 137.811 84.9685L137.81 84.9729C136.677 88.0598 134.918 90.5653 132.5 92.4013C130.047 94.2809 127.074 95.1739 123.696 95.1739C120.805 95.1739 118.231 94.5084 116.026 93.1632ZM127.618 84.0872L127.625 84.0763C128.838 82.2253 129.584 79.1301 129.584 74.4968C129.584 69.8688 128.914 66.732 127.812 64.8315C126.813 63.1101 125.365 62.2704 123.182 62.2704C121.729 62.2704 120.416 62.6905 119.197 63.5604C118.015 64.4178 116.957 65.484 116.026 66.7738V83.4352C116.766 84.4059 117.637 85.1636 118.641 85.7293C119.795 86.3673 121.046 86.689 122.428 86.689C124.886 86.689 126.513 85.7991 127.618 84.0872ZM114.17 84.0296V66.194C115.289 64.5313 116.602 63.1532 118.11 62.0598C119.641 60.9664 121.331 60.4196 123.182 60.4196C125.992 60.4196 128.071 61.5814 129.419 63.9048C130.766 66.2282 131.44 69.7589 131.44 74.4968C131.44 79.2575 130.686 82.7881 129.179 85.0888C127.694 87.3893 125.443 88.5397 122.428 88.5397C120.737 88.5397 119.173 88.1411 117.733 87.3438C116.317 86.5466 115.129 85.4417 114.17 84.0296ZM148.701 76.5811C148.723 77.2233 148.77 77.8402 148.841 78.4319C149.069 80.3157 149.547 81.9425 150.277 83.3121C151.237 85.0888 152.494 86.4099 154.047 87.2755C155.6 88.1183 157.337 88.5397 159.256 88.5397C161.038 88.5397 162.671 88.2778 164.156 87.7539C165.664 87.2299 167.24 86.4099 168.885 85.2937L171.592 89.0864C171.149 89.4331 170.688 89.7599 170.21 90.0673C170.165 90.0962 170.12 90.1247 170.075 90.153C168.767 90.9786 167.33 91.6595 165.766 92.1957C163.596 92.9472 161.403 93.3231 159.187 93.3231C155.738 93.3231 152.768 92.5486 150.277 90.9997C147.787 89.4508 145.891 87.2642 144.589 84.4396C143.31 81.6149 142.67 78.3349 142.67 74.5993C142.67 70.9776 143.321 67.7431 144.623 64.8957C145.926 62.0483 147.765 59.8274 150.14 58.233C152.516 56.6158 155.281 55.807 158.433 55.807C161.449 55.807 164.053 56.5133 166.246 57.9256C168.462 59.3377 170.153 61.3765 171.318 64.0416C171.573 64.6084 171.8 65.1981 172.001 65.8101C172.395 67.015 172.683 68.307 172.865 69.6863C173.12 68.3482 173.485 67.0757 173.961 65.8686C174.091 65.5394 174.229 65.2151 174.375 64.8957C175.677 62.0483 177.516 59.8274 179.892 58.233C182.268 56.6158 185.032 55.807 188.185 55.807C191.2 55.807 193.804 56.5133 195.998 57.9256C198.214 59.3377 199.903 61.3765 201.069 64.0416C201.323 64.6084 201.552 65.1981 201.752 65.8101C202.146 67.015 202.433 68.307 202.617 69.6863C202.871 68.3482 203.237 67.0757 203.712 65.8686C203.842 65.5394 203.979 65.2151 204.126 64.8957C205.429 62.0483 207.267 59.8274 209.643 58.233C212.019 56.6158 214.784 55.807 217.936 55.807C220.952 55.807 223.556 56.5133 225.749 57.9256C227.965 59.3377 229.656 61.3765 230.821 64.0416C232.009 66.6839 232.603 69.8159 232.603 73.4376C232.603 74.4853 232.557 75.5332 232.466 76.5811H208.204C208.226 77.2233 208.273 77.8402 208.343 78.4319C208.572 80.3157 209.051 81.9425 209.78 83.3121C210.74 85.0888 211.996 86.4099 213.55 87.2755C215.103 88.1183 216.839 88.5397 218.758 88.5397C220.54 88.5397 222.174 88.2778 223.659 87.7539C225.166 87.2299 226.743 86.4099 228.388 85.2937L231.094 89.0864C230.651 89.4331 230.19 89.7601 229.711 90.0675C229.667 90.0962 229.622 90.1247 229.578 90.153C228.269 90.9786 226.833 91.6595 225.27 92.1957C223.1 92.9472 220.906 93.3231 218.69 93.3231C215.241 93.3231 212.271 92.5486 209.78 90.9997C207.291 89.4508 205.394 87.2642 204.093 84.4396C203.27 82.6249 202.712 80.6224 202.418 78.4319C202.337 77.8291 202.277 77.2122 202.237 76.5811H178.453C178.474 77.2233 178.521 77.8402 178.593 78.4319C178.82 80.3157 179.299 81.9425 180.029 83.3121C180.988 85.0888 182.245 86.4099 183.798 87.2755C185.352 88.1183 187.088 88.5397 189.008 88.5397C190.79 88.5397 192.423 88.2778 193.908 87.7539C195.415 87.2299 196.991 86.4099 198.636 85.2937L201.344 89.0864C200.9 89.4331 200.44 89.7599 199.961 90.0673C199.916 90.0962 199.872 90.1247 199.827 90.153C198.519 90.9786 197.082 91.6595 195.517 92.1957C193.347 92.9472 191.155 93.3231 188.939 93.3231C185.489 93.3231 182.519 92.5486 180.029 90.9997C177.539 89.4508 175.643 87.2642 174.341 84.4396C173.519 82.6249 172.961 80.6224 172.667 78.4319C172.586 77.8291 172.525 77.2122 172.484 76.5811H148.701ZM170.795 78.4319H150.712C150.927 80.0337 151.339 81.3594 151.914 82.4395C152.727 83.9432 153.744 84.9842 154.943 85.6548C156.199 86.3342 157.623 86.689 159.256 86.689C160.854 86.689 162.275 86.4543 163.537 86.0092L163.545 86.0062C164.867 85.5467 166.299 84.8101 167.841 83.7637L169.343 82.7441L174.132 89.4529L172.737 90.5429C170.872 92.0008 168.745 93.1316 166.372 93.945C164.015 94.7614 161.617 95.1739 159.187 95.1739C155.452 95.1739 152.128 94.3324 149.295 92.5701C146.478 90.8174 144.346 88.3443 142.903 85.2126L142.897 85.2013C141.49 82.0934 140.814 78.5447 140.814 74.5993C140.814 70.754 141.506 67.2513 142.935 64.1278C144.364 61.0023 146.414 58.5041 149.099 56.7011C151.812 54.8561 154.947 53.9563 158.433 53.9563C161.748 53.9563 164.713 54.736 167.25 56.3684C169.805 57.9979 171.72 60.3349 173.015 63.2927C173.027 63.3188 173.039 63.3449 173.05 63.371C174.456 60.5971 176.386 58.3564 178.85 56.7013C181.563 54.8561 184.698 53.9563 188.185 53.9563C191.499 53.9563 194.465 54.736 197 56.3684C199.556 57.9979 201.472 60.3349 202.767 63.2927C202.779 63.3188 202.79 63.3449 202.803 63.371C204.208 60.5971 206.136 58.3564 208.601 56.7013C211.315 54.8561 214.45 53.9563 217.936 53.9563C221.251 53.9563 224.215 54.736 226.753 56.3684C229.309 57.9981 231.224 60.3353 232.518 63.2935C233.834 66.2236 234.46 69.6223 234.46 73.4376C234.46 74.5392 234.411 75.6404 234.315 76.7414L234.168 78.4319H210.214C210.43 80.0339 210.842 81.3595 211.417 82.4398C212.23 83.9434 213.247 84.9844 214.446 85.6548C215.703 86.3344 217.127 86.689 218.758 86.689C220.356 86.689 221.778 86.4543 223.04 86.0092L223.048 86.0062C224.369 85.5467 225.801 84.8101 227.343 83.7637L228.847 82.7441L233.635 89.4529L232.24 90.5429C230.374 92.0006 228.247 93.1314 225.877 93.9448L225.879 93.9439M170.795 78.4319C171.101 80.8745 171.713 83.1353 172.649 85.2013L172.654 85.2126C174.098 88.3443 176.229 90.8174 179.047 92.5701C181.88 94.3324 185.203 95.1739 188.939 95.1739C191.369 95.1739 193.765 94.7614 196.124 93.945C198.496 93.1316 200.624 92.0008 202.489 90.5429L203.883 89.4529L199.094 82.7441L197.592 83.7637C196.05 84.8101 194.619 85.5467 193.297 86.0062L193.288 86.0092C192.026 86.4543 190.606 86.689 189.008 86.689C187.374 86.689 185.951 86.3344 184.695 85.6548C183.496 84.9844 182.479 83.9434 181.666 82.4398C181.091 81.3595 180.678 80.0339 180.464 78.4319H200.547C200.852 80.8745 201.464 83.1353 202.4 85.2013L202.405 85.2126C203.85 88.3443 205.98 90.8174 208.798 92.5701C211.631 94.3324 214.955 95.1739 218.69 95.1739C221.119 95.1739 223.517 94.7612 225.877 93.9448M148.736 72.1393H167.548C167.537 71.4964 167.503 70.8793 167.447 70.2886C167.174 67.4042 166.374 65.1396 165.047 63.4948C163.448 61.5131 161.266 60.5222 158.502 60.5222C155.715 60.5222 153.442 61.5018 151.683 63.4606C150.237 65.0732 149.314 67.349 148.913 70.2886C148.833 70.8786 148.774 71.4956 148.736 72.1393ZM165.199 70.3284C164.934 67.7754 164.61 65.9058 163.601 64.6551C162.414 62 154.082 62.0875 152.205 65.7015M165.199 70.3284L150.788 70.2886C151.17 67.7251 151.683 66.7085 152.205 65.7015M178.487 72.1393H197.299C197.288 71.4964 197.255 70.8793 197.199 70.2886C196.926 67.4042 196.126 65.1396 194.799 63.4948C193.199 61.5131 191.018 60.5222 188.254 60.5222C185.466 60.5222 183.193 61.5018 181.434 63.4606C179.988 65.0732 179.065 67.349 178.665 70.2886C178.584 70.8786 178.525 71.4956 178.487 72.1393ZM195.333 70.2886C195.07 67.7355 194.361 65.9058 193.353 64.6551C192.13 62.3729 181.666 59.9373 180.539 70.2886M208.238 72.1393H227.052C227.04 71.4964 227.005 70.8793 226.95 70.2886C226.677 67.4042 225.877 65.1396 224.549 63.4948C222.951 61.5131 220.768 60.5222 218.005 60.5222C215.217 60.5222 212.945 61.5018 211.185 63.4606C209.739 65.0732 208.817 67.349 208.416 70.2886C208.336 70.8786 208.276 71.4956 208.238 72.1393ZM225.084 70.2886C224.82 67.7355 224.113 65.9058 223.104 64.6551C221.812 62 211.603 60.1493 210.29 70.2886M260.515 39.2577L269.985 40.4379V94.3881H261.435L261.162 92.0228C260.429 92.6326 259.646 93.158 258.814 93.5943C256.802 94.6503 254.619 95.1739 252.297 95.1739C247.202 95.1739 243.152 93.2667 240.451 89.3487L240.448 89.3414C237.88 85.5804 236.698 80.6039 236.698 74.5993C236.698 70.7881 237.288 67.3185 238.506 64.2202L238.512 64.2083C239.759 61.0968 241.582 58.5824 244.019 56.7542C246.513 54.8763 249.437 53.9563 252.708 53.9563C254.976 53.9563 257.057 54.3459 258.913 55.1763C259.468 55.4219 260.002 55.7036 260.515 56.0204V39.2577ZM262.371 60.0439C261.797 59.3732 261.177 58.7823 260.515 58.2709C259.783 57.7053 258.996 57.2371 258.155 56.8662C256.579 56.1602 254.764 55.807 252.708 55.807C249.806 55.807 247.282 56.6158 245.134 58.233C243.009 59.8274 241.376 62.0483 240.234 64.8957C239.115 67.7431 238.554 70.9776 238.554 74.5993C238.554 80.3849 239.698 84.952 241.983 88.3006C244.29 91.649 247.727 93.3231 252.297 93.3231C254.33 93.3231 256.214 92.8677 257.951 91.9564C259.011 91.4002 259.995 90.6655 260.901 89.7527C261.48 89.1702 262.027 88.5155 262.543 87.7879L263.091 92.5373H268.129V42.0717L262.371 41.3542V60.0439ZM257.845 63.2528L257.831 63.2437C256.726 62.5946 255.534 62.2704 254.215 62.2704C251.759 62.2704 250.022 63.1898 248.763 65.0419C247.466 66.9663 246.682 70.0617 246.682 74.5993C246.682 79.1033 247.401 82.2044 248.596 84.1466C249.738 85.964 251.297 86.8255 253.496 86.8255C255.961 86.8255 258.308 85.5602 260.515 82.4333V65.6214C259.75 64.6033 258.864 63.8261 257.86 63.2615L257.845 63.2528ZM262.371 65.0324V83.0045C259.857 86.7857 256.901 88.6763 253.496 88.6763C250.664 88.6763 248.503 87.4918 247.018 85.1229C245.558 82.7539 244.826 79.2462 244.826 74.5993C244.826 69.9069 245.626 66.3763 247.224 64.0073C248.847 61.6156 251.176 60.4196 254.215 60.4196C255.861 60.4196 257.379 60.8298 258.773 61.6498C260.19 62.447 261.389 63.5746 262.371 65.0324Z" fill="#17A2B8"/>
</svg>
